# xmcd
#
# Track frame offsets: 
#        150
#        7417
#        35804
#        61397
#        77810
#        128312
#        161966
#        203063
#        227348
#        259215
#        278307
#        315860
#
# Disc length: 4383 seconds
#
# Revision: 9
# Processed by: cddbd v1.5.2PL0 Copyright (c) Steve Scherf et al.
# Submitted via: ExactAudioCopy v0.99pb4
#
DISCID=97111d0c
DTITLE=???? - JOY  Disc2
DYEAR=1989
DGENRE=Pop
TTITLE0=Introduction to ?FUTARI?
TTITLE1=???
TTITLE2=?????????
TTITLE3=GOD ONLY KNOWS
TTITLE4=???????????
TTITLE5=LET'S DANCE BABY
TTITLE6=LOVELAND, ISLAND
TTITLE7=?????????????
TTITLE8=????????????
TTITLE9=DOWN TOWN
TTITLE10=RIDE ON TIME
TTITLE11=????????
EXTD=
EXTT0=
EXTT1=
EXTT2=
EXTT3=
EXTT4=
EXTT5=
EXTT6=
EXTT7=
EXTT8=
EXTT9=
EXTT10=
EXTT11=
PLAYORDER=
